<?xml version="1.0" standalone="no"?>
<!DOCTYPE svg PUBLIC "-//W3C//DTD SVG 1.1//EN" "http://www.w3.org/Graphics/SVG/1.1/DTD/svg11.dtd">
<svg xmlns="http://www.w3.org/2000/svg" class="icon icon-tabler icon-tabler-link" viewBox="0 0 1024 1024" version="1.1"
  width="200" height="200" stroke-width="2" stroke="currentColor" fill="currentColor" stroke-linecap="round" stroke-linejoin="round"
  >
  <path
    d="M644 263.008q-60.992-64-152-64-84 0-143.488 59.488t-59.488 143.488q0 15.008 10.496 25.504t25.504 10.496 25.504-10.496 10.496-25.504q0-54.016 38.496-92.512t92.512-38.496h0.992q59.008 0 99.008 42.016 35.008 36.992 32 84.992-0.992 18.016-4 28.992t-20.992 37.504-54.016 62.496q-43.008 43.008-66.496 76.992t-27.488 72q-2.016 15.008 7.488 26.496t24.512 12.512h4q14.016 0 24-8.992t12-23.008q3.008-35.008 72.992-104.992 60.992-60.992 79.488-98.016t20.512-78.016q4.992-79.008-52-139.008zM443.008 816q0-18.016 12.512-30.496t30.496-12.512 30.496 12.512 12.512 30.496-12.512 30.496-30.496 12.512-30.496-12.512-12.512-30.496z"
    p-id="1452"></path>
</svg>